<svg width="48" height="48" viewBox="0 0 48 48" fill="none" xmlns="http://www.w3.org/2000/svg">
<path d="M16.5 41.5H31.5C37.022 41.5 41.5 37.022 41.5 31.5V16.5C41.5 10.977 37.022 6.5 31.5 6.5H16.5C10.977 6.5 6.5 10.977 6.5 16.5V31.5C6.5 37.022 10.977 41.5 16.5 41.5Z" stroke="white" stroke-width="3" stroke-miterlimit="10"/>
<path d="M24 15.5C19.306 15.5 15.5 19.306 15.5 24C15.5 28.694 19.306 32.5 24 32.5C28.694 32.5 32.5 28.694 32.5 24C32.5 19.306 28.694 15.5 24 15.5Z" stroke="white" stroke-width="3" stroke-miterlimit="10"/>
<path d="M34 12C32.895 12 32 12.895 32 14C32 15.105 32.895 16 34 16C35.105 16 36 15.105 36 14C36 12.895 35.105 12 34 12Z" fill="white"/>
</svg>
