<svg width="150" height="150" viewBox="0 0 150 150" fill="none" xmlns="http://www.w3.org/2000/svg">
<path d="M75 6C36.954 6 5.99996 36.954 5.99996 75C5.99996 86.88 9.06896 98.562 14.889 108.87L6.11096 140.19C5.82296 141.219 6.10196 142.323 6.84596 143.088C7.41896 143.679 8.19896 144 8.99996 144C9.23996 144 9.48296 143.97 9.71996 143.913L42.408 135.816C52.389 141.174 63.63 144 75 144C113.046 144 144 113.046 144 75C144 36.954 113.046 6 75 6ZM109.71 99.348C108.234 103.434 101.154 107.163 97.752 107.664C94.698 108.111 90.834 108.303 86.592 106.971C84.021 106.161 80.721 105.087 76.494 103.284C58.725 95.706 47.121 78.039 46.233 76.872C45.348 75.705 39 67.389 39 58.782C39 50.175 43.575 45.942 45.201 44.19C46.827 42.438 48.744 42 49.926 42C51.108 42 52.287 42.015 53.322 42.063C54.411 42.117 55.872 41.652 57.309 45.066C58.785 48.57 62.328 57.177 62.766 58.056C63.21 58.932 63.504 59.955 62.916 61.122C62.328 62.289 62.034 63.018 61.146 64.041C60.258 65.064 59.286 66.321 58.488 67.107C57.6 67.98 56.679 68.925 57.711 70.677C58.743 72.429 62.298 78.156 67.566 82.794C74.331 88.752 80.04 90.6 81.81 91.476C83.58 92.352 84.615 92.205 85.647 91.038C86.679 89.868 90.075 85.929 91.254 84.18C92.433 82.431 93.615 82.719 95.241 83.304C96.867 83.886 105.576 88.116 107.346 88.992C109.116 89.868 110.298 90.306 110.742 91.035C111.186 91.761 111.186 95.265 109.71 99.348Z" fill="white"/>
</svg>
